<svg width="577" height="260" viewBox="0 0 577 260" fill="none" xmlns="http://www.w3.org/2000/svg">
<path d="M341.632 169.239V148.25H345.286V157.15H354.086V148.25H357.74V169.239H354.086V160.339H345.238V169.239H341.632Z" fill="#231F20"/>
<path d="M368.511 155.342C368.511 150.63 371.732 147.774 376.829 147.774C381.974 147.774 385.148 150.63 385.148 155.342V162.1C385.148 166.811 381.926 169.667 376.829 169.667C371.684 169.667 368.511 166.811 368.511 162.1V155.342ZM381.541 155.199C381.541 152.867 379.906 151.106 376.829 151.106C373.752 151.106 372.117 152.819 372.117 155.199V162.29C372.117 164.622 373.752 166.383 376.829 166.383C379.906 166.383 381.541 164.67 381.541 162.29V155.199Z" fill="#231F20"/>
<path d="M396.014 169.239V148.25H399.669V166.05H409.814V169.239H396.014Z" fill="#231F20"/>
<path d="M419.239 169.239V148.25H426.788C431.933 148.25 435.106 150.916 435.106 155.532V162.005C435.106 166.573 431.884 169.286 426.788 169.286L419.239 169.239ZM422.797 166.098H426.74C429.673 166.098 431.452 164.479 431.452 162.1V155.437C431.452 153.105 429.673 151.439 426.74 151.439H422.797V166.098Z" fill="#231F20"/>
<path d="M445.973 169.239V148.25H449.627V169.239H445.973Z" fill="#231F20"/>
<path d="M461.071 169.239V148.25H464.389L473.428 162.528V148.25H477.083V169.239H473.765L464.725 154.961V169.239H461.071Z" fill="#231F20"/>
<path d="M488.046 162.242V155.389C488.046 150.63 491.123 147.822 496.46 147.822C498.72 147.822 500.596 148.44 502.086 149.63C503.625 150.82 504.394 152.629 504.394 154.913V155.008H500.74V154.913C500.74 152.629 499.009 151.106 496.268 151.106C493.431 151.106 491.7 152.629 491.7 155.103V162.195C491.7 164.812 493.335 166.335 496.172 166.335C498.143 166.335 499.874 165.336 500.74 163.765V161.1H496.557V158.102H504.346V169.191H502.375L501.269 167.239C499.922 168.857 498.191 169.667 495.835 169.667C490.979 169.667 488.046 166.954 488.046 162.242Z" fill="#231F20"/>
<path fill-rule="evenodd" clip-rule="evenodd" d="M211.423 119.886L249.937 158.483L261.429 169.857L272.921 158.483L311.917 119.743L288.933 97.0415L261.429 124.407L234.406 97.1367L211.423 119.886Z" fill="#231F20"/>
<path fill-rule="evenodd" clip-rule="evenodd" d="M288.212 44.8804C295.568 52.162 299.223 61.7756 299.223 71.3892C299.223 78.8612 297.011 86.3331 292.587 92.7105L315.763 115.65C326.39 102.848 331.727 87.1422 331.727 71.4368C331.727 53.5898 324.899 35.7427 311.195 22.2266C297.492 8.66286 279.46 1.90479 261.477 1.90479C243.446 1.90479 225.415 8.66286 211.759 22.2266C198.055 35.7903 191.228 53.6374 191.228 71.4368C191.228 87.1422 196.565 102.895 207.191 115.65L230.367 92.7105C225.944 86.3331 223.732 78.8612 223.732 71.3892C223.732 61.7756 227.386 52.162 234.743 44.8804C242.1 37.5988 251.813 33.9818 261.525 33.9818C271.142 33.9818 280.855 37.5988 288.212 44.8804Z" fill="#231F20"/>
<path d="M0 6.75928H42.7461L56.3537 88.6652H60.008L78.2797 6.75928H111.746L129.921 88.6652H133.576L147.279 6.75928H189.929L165.166 133.164H108.38L96.7918 72.4363H93.1374L81.6455 133.164H24.7629L0 6.75928Z" fill="#231F20"/>
<path d="M341.536 6.75928H383.561V98.4216H451.695V133.164H341.536V6.75928Z" fill="#231F20"/>
<path d="M462.273 6.75928H577V41.5967H504.346V58.6822H573.827V88.808H504.346V133.164H462.321L462.273 6.75928Z" fill="#231F20"/>
<path d="M163.579 155.056H24.5706V165.241H163.579V155.056Z" fill="#231F20"/>
<path d="M72.0619 240.812V228.594H76.8824C77.8091 228.594 78.5986 228.771 79.2509 229.125C79.9031 229.475 80.4003 229.963 80.7423 230.587C81.0884 231.207 81.2614 231.923 81.2614 232.735C81.2614 233.546 81.0864 234.262 80.7364 234.882C80.3864 235.503 79.8793 235.986 79.2151 236.332C78.5548 236.678 77.7554 236.851 76.8168 236.851H73.7443V234.781H76.3991C76.8963 234.781 77.306 234.695 77.6281 234.524C77.9543 234.349 78.1969 234.109 78.356 233.803C78.519 233.492 78.6006 233.136 78.6006 232.735C78.6006 232.329 78.519 231.975 78.356 231.673C78.1969 231.366 77.9543 231.13 77.6281 230.963C77.302 230.792 76.8884 230.706 76.3872 230.706H74.6452V240.812H72.0619ZM83.6343 240.812H80.8661L85.084 228.594H88.413L92.6249 240.812H89.8567L86.7962 231.386H86.7008L83.6343 240.812ZM83.4613 236.01H89.9999V238.026H83.4613V236.01ZM94.0955 240.812V228.594H98.916C99.8387 228.594 100.626 228.759 101.278 229.089C101.935 229.416 102.434 229.879 102.776 230.48C103.122 231.076 103.295 231.778 103.295 232.586C103.295 233.397 103.12 234.095 102.77 234.68C102.42 235.26 101.913 235.706 101.249 236.016C100.588 236.326 99.789 236.481 98.8504 236.481H95.6228V234.405H98.4327C98.9259 234.405 99.3356 234.338 99.6617 234.202C99.9879 234.067 100.23 233.864 100.39 233.594C100.553 233.323 100.634 232.987 100.634 232.586C100.634 232.18 100.553 231.838 100.39 231.559C100.23 231.281 99.9859 231.07 99.6558 230.927C99.3296 230.78 98.918 230.706 98.4208 230.706H96.6788V240.812H94.0955ZM100.694 235.252L103.73 240.812H100.879L97.9077 235.252H100.694ZM104.655 230.724V228.594H114.69V230.724H110.949V240.812H108.396V230.724H104.655ZM131.459 234.703C131.459 236.036 131.206 237.169 130.701 238.104C130.2 239.039 129.516 239.753 128.649 240.246C127.786 240.735 126.815 240.98 125.737 240.98C124.651 240.98 123.677 240.733 122.814 240.24C121.951 239.747 121.269 239.033 120.768 238.098C120.266 237.163 120.016 236.032 120.016 234.703C120.016 233.371 120.266 232.238 120.768 231.303C121.269 230.368 121.951 229.656 122.814 229.167C123.677 228.674 124.651 228.427 125.737 228.427C126.815 228.427 127.786 228.674 128.649 229.167C129.516 229.656 130.2 230.368 130.701 231.303C131.206 232.238 131.459 233.371 131.459 234.703ZM128.839 234.703C128.839 233.84 128.71 233.113 128.452 232.52C128.197 231.927 127.837 231.478 127.372 231.172C126.907 230.865 126.362 230.712 125.737 230.712C125.113 230.712 124.568 230.865 124.103 231.172C123.637 231.478 123.275 231.927 123.017 232.52C122.762 233.113 122.635 233.84 122.635 234.703C122.635 235.566 122.762 236.294 123.017 236.887C123.275 237.48 123.637 237.929 124.103 238.235C124.568 238.541 125.113 238.695 125.737 238.695C126.362 238.695 126.907 238.541 127.372 238.235C127.837 237.929 128.197 237.48 128.452 236.887C128.71 236.294 128.839 235.566 128.839 234.703ZM133.372 240.812V228.594H141.462V230.724H135.955V233.636H140.925V235.765H135.955V240.812H133.372Z" fill="black"/>
<path d="M183 234.847C183 236.642 183.193 238.393 183.551 240.08C187.702 238.282 194.19 235.518 201.272 232.664C202.157 232.515 202.89 232.453 203.421 232.506C205.488 232.711 206.493 233.791 205.998 236.173C205.798 236.246 205.596 236.322 205.4 236.393C205.599 236.319 205.804 236.243 206.004 236.17C205.326 239.528 201.63 245.507 193.636 255.348C194.635 256.055 195.691 256.689 196.79 257.246C206.177 245.973 211.515 238.396 213.86 233.48C213.854 233.48 213.851 233.48 213.845 233.486C215.238 230.573 215.584 228.587 215.091 227.322C215.086 227.322 215.08 227.325 215.074 227.328C214.64 226.255 213.602 225.7 212.078 225.548C207.938 225.134 193.724 230.546 183.003 234.926C183.003 234.899 183.003 234.873 183.003 234.847" fill="white"/>
<path fill-rule="evenodd" clip-rule="evenodd" d="M184.935 244.498C186.764 248.886 189.801 252.644 193.636 255.352C201.63 245.51 205.324 239.532 206.004 236.173C198.719 238.822 190.848 242.022 184.938 244.498H184.935Z" fill="black"/>
<path fill-rule="evenodd" clip-rule="evenodd" d="M201.132 232.72C197.066 233.433 189.861 235.976 183.279 238.543C183.356 239.059 183.452 239.57 183.561 240.077C187.682 238.291 194.111 235.554 201.132 232.72Z" fill="black"/>
<path fill-rule="evenodd" clip-rule="evenodd" d="M212.081 225.547C213.605 225.703 214.643 226.254 215.077 227.328C220.594 225.307 225.803 223.564 229.893 222.514C225.586 214.905 217.431 209.763 208.067 209.763C194.225 209.763 183.006 220.995 183.006 234.846C183.006 234.873 183.006 234.899 183.006 234.926C193.726 230.546 207.938 225.137 212.081 225.547Z" fill="black"/>
<path fill-rule="evenodd" clip-rule="evenodd" d="M224.84 231.159C222.823 230.956 218.786 231.921 213.861 233.479C211.519 238.398 206.178 245.972 196.791 257.245C200.183 258.958 204.011 259.929 208.068 259.929C210.167 259.929 212.205 259.668 214.154 259.181C230.436 238.571 231.374 231.816 224.84 231.159Z" fill="black"/>
<path fill-rule="evenodd" clip-rule="evenodd" d="M214.326 259.143C214.326 259.143 214.342 259.138 214.351 259.136C214.342 259.136 214.335 259.14 214.326 259.143Z" fill="#CFCFCF"/>
<path fill-rule="evenodd" clip-rule="evenodd" d="M203.42 232.505C202.889 232.453 202.153 232.514 201.271 232.664C194.188 235.518 187.698 238.284 183.55 240.082L183.556 240.103L183.594 240.285C183.626 240.432 183.661 240.578 183.693 240.722L183.711 240.792L183.729 240.863L183.746 240.933C183.778 241.062 183.811 241.188 183.846 241.314L183.875 241.426L183.893 241.496L183.913 241.567C183.943 241.675 183.975 241.784 184.007 241.892L184.077 242.127C184.113 242.241 184.148 242.356 184.183 242.467L184.274 242.749C184.306 242.843 184.338 242.937 184.368 243.031C184.403 243.136 184.441 243.242 184.479 243.35L184.567 243.588C184.611 243.705 184.655 243.823 184.699 243.937L184.787 244.157C184.834 244.271 184.878 244.386 184.928 244.5C190.841 242.024 198.715 238.821 206.002 236.172C206.495 233.79 205.492 232.711 203.426 232.505H203.42Z" fill="#C0C3C6"/>
<path fill-rule="evenodd" clip-rule="evenodd" d="M233.128 234.216V234.198V234.184C233.122 233.976 233.114 233.77 233.105 233.562V233.541C233.093 233.336 233.081 233.131 233.064 232.928V232.896C233.046 232.699 233.029 232.5 233.008 232.303L233.002 232.248C232.982 232.06 232.961 231.872 232.938 231.685L232.929 231.611C232.905 231.432 232.882 231.25 232.853 231.071L232.838 230.975C232.812 230.804 232.785 230.637 232.753 230.47L232.73 230.344C232.7 230.18 232.668 230.015 232.636 229.854L232.612 229.743C232.58 229.581 232.545 229.423 232.507 229.262L232.469 229.091C232.436 228.948 232.401 228.804 232.363 228.663L232.319 228.49C232.284 228.352 232.246 228.214 232.208 228.076L232.146 227.859C232.111 227.742 232.079 227.625 232.041 227.507L231.964 227.261C231.929 227.149 231.894 227.038 231.856 226.929L231.771 226.674C231.736 226.572 231.701 226.469 231.663 226.369L231.56 226.088L231.454 225.806C231.419 225.712 231.384 225.621 231.346 225.53C231.311 225.439 231.273 225.348 231.235 225.26C231.188 225.146 231.141 225.034 231.091 224.92L231.006 224.724C230.947 224.592 230.889 224.46 230.827 224.328L230.754 224.172C230.692 224.043 230.631 223.914 230.569 223.788L230.484 223.618C230.422 223.494 230.358 223.368 230.293 223.245L230.206 223.078C230.141 222.961 230.079 222.843 230.015 222.723L229.907 222.526L229.898 222.512C225.814 223.562 220.608 225.301 215.091 227.32C215.583 228.584 215.237 230.57 213.845 233.483C218.778 231.922 222.821 230.957 224.838 231.156C231.372 231.814 230.434 238.572 214.147 259.188H214.15C214.311 259.147 214.472 259.106 214.63 259.062L214.674 259.05C214.836 259.006 214.997 258.962 215.158 258.912H215.17C215.994 258.666 216.803 258.382 217.588 258.059L217.635 258.041C217.782 257.98 217.928 257.918 218.075 257.853L218.119 257.833C219.045 257.425 219.945 256.965 220.81 256.454L220.872 256.419C221.004 256.34 221.135 256.261 221.267 256.179L221.311 256.149C222.018 255.709 222.698 255.234 223.355 254.729L223.399 254.694C223.513 254.606 223.624 254.518 223.736 254.427L223.832 254.348C223.941 254.26 224.046 254.172 224.155 254.084L224.228 254.022C224.343 253.926 224.454 253.832 224.565 253.732C224.932 253.409 225.292 253.075 225.641 252.732L225.697 252.676C225.791 252.582 225.884 252.488 225.978 252.391L226.087 252.283C226.175 252.192 226.26 252.101 226.345 252.01L226.465 251.884C226.55 251.793 226.632 251.702 226.717 251.608L226.82 251.491C226.908 251.394 226.993 251.297 227.078 251.198L227.113 251.157C227.312 250.922 227.509 250.684 227.699 250.444L227.734 250.4C227.808 250.306 227.881 250.209 227.957 250.115L228.08 249.954C228.148 249.866 228.212 249.778 228.277 249.69L228.406 249.514C228.473 249.423 228.538 249.329 228.602 249.238L228.725 249.059C228.787 248.971 228.848 248.88 228.907 248.789L229.039 248.587C229.097 248.499 229.156 248.408 229.215 248.32C229.306 248.176 229.396 248.029 229.487 247.886C229.54 247.801 229.59 247.713 229.643 247.628L229.772 247.408C229.822 247.323 229.868 247.24 229.915 247.155L230.053 246.906L230.182 246.671C230.229 246.583 230.276 246.495 230.323 246.407L230.446 246.17C230.493 246.076 230.54 245.979 230.587 245.885C230.622 245.812 230.657 245.741 230.692 245.668C230.742 245.565 230.789 245.46 230.839 245.354C230.889 245.243 230.941 245.131 230.991 245.02C231.044 244.9 231.1 244.776 231.152 244.653C231.185 244.58 231.214 244.506 231.243 244.433C231.284 244.33 231.328 244.231 231.369 244.128L231.46 243.896C231.501 243.794 231.539 243.691 231.578 243.585L231.663 243.354C231.701 243.251 231.736 243.148 231.771 243.043L231.85 242.808C231.888 242.697 231.923 242.582 231.959 242.471C231.982 242.4 232.003 242.333 232.026 242.262C232.082 242.083 232.134 241.905 232.184 241.726L232.222 241.588C232.261 241.45 232.299 241.309 232.337 241.168C232.357 241.092 232.375 241.016 232.395 240.939C232.422 240.831 232.448 240.722 232.475 240.614L232.533 240.359C232.557 240.25 232.58 240.139 232.604 240.03L232.65 239.801C232.674 239.681 232.697 239.564 232.718 239.443C232.733 239.367 232.747 239.291 232.759 239.215C232.782 239.077 232.806 238.936 232.829 238.795L232.853 238.643C232.882 238.449 232.908 238.255 232.935 238.059L232.952 237.915C232.97 237.768 232.988 237.622 233.002 237.475L233.023 237.255C233.034 237.129 233.046 237 233.055 236.874L233.073 236.657C233.081 236.528 233.09 236.398 233.096 236.269L233.108 236.041C233.114 235.909 233.119 235.78 233.122 235.648L233.128 235.445C233.134 235.246 233.137 235.043 233.137 234.841C233.137 234.638 233.137 234.421 233.128 234.213V234.216Z" fill="#C0C3C6"/>
<path fill-rule="evenodd" clip-rule="evenodd" d="M264.126 244.802H268.594L264.765 221.789H258.407L246.909 244.802H251.746L254.417 239.492H263.261L264.129 244.802H264.126ZM256.167 235.952L261.03 226.216L262.657 235.952H256.164H256.167Z" fill="black"/>
<path fill-rule="evenodd" clip-rule="evenodd" d="M285.419 229.756H281.66L277.975 235.843L276.829 237.723C276.199 238.767 275.768 239.245 275.551 239.16C275.475 239.102 275.317 238.172 275.053 236.385L274.141 229.756H270.383L273.221 244.804H276.539L285.422 229.756H285.419Z" fill="black"/>
<path fill-rule="evenodd" clip-rule="evenodd" d="M299.68 233.074C300.179 232.754 300.873 232.575 301.747 232.575C302.621 232.575 303.221 232.724 303.647 232.997C304.06 233.296 304.277 233.646 304.277 234.071C304.277 234.408 304.174 234.851 303.966 235.397C303.251 235.614 301.823 235.793 299.71 235.942C297.18 236.121 295.432 236.62 294.465 237.43C293.489 238.236 292.999 239.319 292.999 240.674C292.999 241.897 293.421 242.895 294.307 243.654C295.189 244.417 296.309 244.801 297.652 244.801C298.487 244.801 299.325 244.678 300.17 244.443C301.005 244.209 301.75 243.775 302.398 243.097V244.801H306.777C306.364 244.039 306.156 243.343 306.156 242.713C306.156 242.009 306.39 240.785 306.88 239.025C307.455 236.91 307.783 235.605 307.886 235.103C307.979 234.605 308.035 234.135 308.035 233.692C308.035 232.592 307.545 231.663 306.578 230.903C305.611 230.14 304.098 229.756 302.075 229.756C300.053 229.756 298.552 230.14 297.376 230.903C296.183 231.663 295.347 232.736 294.875 234.089L298.634 234.455C298.812 233.863 299.161 233.393 299.677 233.071L299.68 233.074ZM303.186 238.688C302.943 239.553 302.659 240.184 302.351 240.595C302.031 241.011 301.562 241.328 300.932 241.592C300.302 241.856 299.625 241.979 298.921 241.979C298.273 241.979 297.745 241.847 297.353 241.557C296.948 241.275 296.76 240.917 296.76 240.513C296.76 240.014 297.015 239.612 297.54 239.319C298.255 238.905 299.815 238.603 302.193 238.377C302.662 238.33 303.028 238.274 303.321 238.219L303.189 238.688H303.186Z" fill="black"/>
<path fill-rule="evenodd" clip-rule="evenodd" d="M314.471 241.51C315.055 242.546 316.046 243.353 317.462 243.936C318.869 244.511 320.531 244.805 322.46 244.805C325.254 244.805 327.423 244.115 328.997 242.716C330.563 241.317 331.351 239.636 331.351 237.653C331.351 236.06 330.829 234.766 329.777 233.74C329.062 233.05 327.414 232.147 324.831 231.029C323.099 230.296 321.985 229.712 321.481 229.287C320.985 228.87 320.736 228.331 320.736 227.694C320.736 227.022 321.012 226.456 321.577 226.013C322.143 225.57 323.099 225.333 324.424 225.333C325.749 225.333 326.787 225.635 327.485 226.245C328.173 226.855 328.572 227.741 328.695 228.873L333.119 228.671C332.969 226.591 332.154 224.919 330.686 223.669C329.217 222.431 327.13 221.792 324.45 221.792C321.771 221.792 319.798 222.429 318.4 223.669C317.001 224.934 316.312 226.512 316.312 228.404C316.312 229.492 316.55 230.448 317.019 231.252C317.488 232.068 318.124 232.731 318.939 233.226C319.754 233.74 321.053 234.376 322.823 235.139C324.591 235.899 325.682 236.45 326.086 236.785C326.634 237.257 326.928 237.803 326.928 238.468C326.928 239.249 326.582 239.912 325.901 240.451C325.213 241 324.104 241.267 322.586 241.267C320.754 241.267 319.49 240.921 318.819 240.214C318.385 239.788 318.139 238.958 318.086 237.726L313.662 237.929C313.618 239.29 313.903 240.478 314.477 241.513L314.471 241.51Z" fill="black"/>
<path fill-rule="evenodd" clip-rule="evenodd" d="M335.663 241.686C336.167 242.686 336.956 243.458 338.008 243.998C339.061 244.537 340.271 244.804 341.643 244.804C344.156 244.804 346.164 243.962 347.668 242.255C349.163 240.574 349.922 238.553 349.922 236.227C349.922 234.253 349.312 232.678 348.128 231.51C346.926 230.351 345.252 229.759 343.121 229.759C340.653 229.759 338.662 230.565 337.149 232.138C335.628 233.716 334.886 235.84 334.886 238.494C334.886 239.636 335.135 240.697 335.663 241.689V241.686ZM344.669 240.695C343.871 241.66 342.875 242.147 341.696 242.147C340.758 242.147 339.972 241.827 339.351 241.181C338.724 240.545 338.422 239.668 338.422 238.562C338.422 237.676 338.615 236.711 339.014 235.658C339.421 234.605 339.987 233.789 340.702 233.241C341.418 232.683 342.25 232.411 343.188 232.411C344.126 232.411 344.886 232.713 345.478 233.296C346.079 233.889 346.381 234.678 346.381 235.661C346.381 237.644 345.797 239.316 344.666 240.697L344.669 240.695Z" fill="black"/>
<path fill-rule="evenodd" clip-rule="evenodd" d="M355.281 244.801L359.678 224.446H356.087L351.69 244.801H355.281Z" fill="black"/>
<path fill-rule="evenodd" clip-rule="evenodd" d="M360.774 238.21C360.387 239.768 360.211 240.803 360.211 241.334C360.211 242.396 360.563 243.238 361.296 243.866C362.014 244.505 363.023 244.804 364.295 244.804C366.303 244.804 368.15 244.086 369.868 242.616L369.399 244.804H372.902L376.182 229.759H372.594L371.011 237.13C370.826 238.096 370.612 238.785 370.419 239.193C370.117 239.732 369.8 240.175 369.463 240.504C369.135 240.838 368.745 241.14 368.332 241.39C367.907 241.636 367.49 241.833 367.095 241.956C366.69 242.097 366.288 242.152 365.872 242.152C365.298 242.152 364.82 242.003 364.465 241.692C364.093 241.39 363.908 241.02 363.908 240.577C363.908 240.328 364.034 239.665 364.298 238.594L366.429 229.762H362.864L360.774 238.213V238.21Z" fill="black"/>
<path fill-rule="evenodd" clip-rule="evenodd" d="M380.554 232.41L379.006 238.899C378.472 240.574 378.226 241.633 378.226 242.094C378.226 242.953 378.59 243.616 379.331 244.085C380.064 244.563 381.243 244.804 382.87 244.804C383.699 244.804 384.497 244.751 385.303 244.628L386.188 242.149C385.083 242.202 384.403 242.228 384.127 242.228C383.33 242.228 382.79 242.149 382.483 241.979C382.181 241.812 382.031 241.58 382.031 241.278C382.031 241.111 382.181 240.43 382.509 239.225L384.127 232.41H387.073L387.959 229.756H384.766L386.261 225.329L381.627 227.984L381.184 229.756H379.114L378.229 232.41H380.557H380.554Z" fill="black"/>
<path fill-rule="evenodd" clip-rule="evenodd" d="M390.707 227.986H394.298L395.057 224.446H391.466L390.704 227.986H390.707ZM387.072 244.804H390.663L393.908 229.758H390.317L387.072 244.804Z" fill="black"/>
<path fill-rule="evenodd" clip-rule="evenodd" d="M289.025 227.986H292.617L293.376 224.446H289.785L289.023 227.986H289.025ZM285.39 244.804H288.981L292.227 229.758H288.636L285.39 244.804Z" fill="black"/>
<path fill-rule="evenodd" clip-rule="evenodd" d="M396.694 241.686C397.198 242.686 397.984 243.458 399.036 243.998C400.089 244.537 401.302 244.804 402.671 244.804C405.184 244.804 407.192 243.962 408.696 242.255C410.191 240.574 410.95 238.553 410.95 236.227C410.95 234.253 410.34 232.678 409.153 231.51C407.948 230.351 406.277 229.759 404.146 229.759C401.678 229.759 399.687 230.565 398.175 232.138C396.653 233.716 395.911 235.84 395.911 238.494C395.911 239.636 396.158 240.697 396.691 241.689L396.694 241.686ZM405.697 240.695C404.902 241.66 403.9 242.147 402.727 242.147C401.789 242.147 401 241.827 400.382 241.181C399.755 240.545 399.453 239.668 399.453 238.562C399.453 237.676 399.646 236.711 400.045 235.658C400.452 234.605 401.018 233.789 401.733 233.241C402.449 232.683 403.281 232.411 404.219 232.411C405.157 232.411 405.917 232.713 406.509 233.296C407.11 233.889 407.412 234.678 407.412 235.661C407.412 237.644 406.828 239.316 405.697 240.697V240.695Z" fill="black"/>
<path fill-rule="evenodd" clip-rule="evenodd" d="M412.723 244.801H416.314L417.633 238.632C418.076 236.864 418.489 235.687 418.844 235.112C419.287 234.306 419.914 233.66 420.7 233.156C421.488 232.66 422.204 232.414 422.852 232.414C423.432 232.414 423.904 232.581 424.238 232.9C424.566 233.229 424.734 233.663 424.734 234.209L424.247 236.476L422.453 244.804H426.044L427.841 236.441C428.149 234.998 428.372 234.042 428.477 233.546C428.477 232.414 428.122 231.484 427.398 230.794C426.68 230.105 425.701 229.759 424.461 229.759C423.517 229.759 422.62 229.935 421.773 230.272C420.931 230.601 420.037 231.167 419.067 231.947L419.524 229.762H415.936L412.723 244.807V244.801Z" fill="black"/>
<path fill-rule="evenodd" clip-rule="evenodd" d="M432.056 243.599C433.302 244.405 435.073 244.801 437.348 244.801C439.623 244.801 441.417 244.306 442.671 243.305C443.926 242.314 444.565 241.12 444.565 239.756C444.565 238.703 444.052 237.799 443.044 237.04C442.328 236.517 440.904 235.978 438.772 235.429C437.392 235.065 436.58 234.819 436.33 234.669C435.917 234.449 435.721 234.138 435.721 233.766C435.721 233.423 435.923 233.103 436.339 232.83C436.755 232.554 437.444 232.414 438.397 232.414C439.35 232.414 440.159 232.61 440.83 232.962C441.326 233.244 441.689 233.643 441.909 234.182L445.447 233.534C445.172 232.367 444.536 231.454 443.536 230.783C442.528 230.102 441.05 229.756 439.104 229.756C436.627 229.756 434.762 230.34 433.522 231.472C432.622 232.296 432.179 233.27 432.179 234.402C432.179 235.535 432.692 236.473 433.71 237.163C434.363 237.623 436.061 238.233 438.813 239.005C439.839 239.316 440.458 239.545 440.698 239.738C440.918 239.958 441.024 240.199 441.024 240.472C441.024 240.888 440.775 241.234 440.282 241.507C439.558 241.941 438.617 242.147 437.444 242.147C436.272 242.147 435.392 241.95 434.73 241.554C434.067 241.146 433.507 240.457 433.065 239.492L429.526 240.208C429.969 241.677 430.81 242.792 432.056 243.599Z" fill="black"/>
<path fill-rule="evenodd" clip-rule="evenodd" d="M459.599 235.952H465.623L464.923 239.668C464.172 240.472 463.287 240.941 462.269 241.065C461.243 241.205 460.235 241.261 459.273 241.261C457.635 241.261 456.398 240.801 455.547 239.879C454.706 238.97 454.293 237.544 454.293 235.605C454.293 233.666 454.639 231.854 455.354 230.199C456.078 228.536 457.06 227.321 458.327 226.518C459.581 225.729 460.971 225.333 462.492 225.333C463.776 225.333 464.838 225.635 465.696 226.236C466.552 226.829 467.174 227.715 467.564 228.873L471.985 228.413C471.463 226.263 470.41 224.626 468.836 223.49C467.244 222.358 465.148 221.792 462.522 221.792C459.895 221.792 457.611 222.455 455.676 223.766C453.75 225.083 452.235 226.934 451.182 229.316C450.297 231.308 449.872 233.379 449.872 235.538C449.872 238.776 450.881 241.246 452.897 242.939C454.375 244.186 456.506 244.808 459.282 244.808C461.068 244.808 462.821 244.57 464.536 244.074C466.25 243.587 467.71 242.701 468.904 241.411L470.78 232.42H460.484L459.599 235.96V235.952Z" fill="black"/>
<path fill-rule="evenodd" clip-rule="evenodd" d="M472.868 244.801H476.459L477.441 240.172C477.828 238.316 478.218 236.978 478.617 236.118C479.004 235.262 479.555 234.578 480.261 234.065C480.953 233.56 481.642 233.296 482.334 233.296C482.739 233.296 483.12 233.367 483.483 233.493L485.251 230.181C484.588 229.908 483.979 229.756 483.427 229.756C481.83 229.756 480.332 230.844 478.963 233.03L479.652 229.756H476.061L472.868 244.801Z" fill="black"/>
<path fill-rule="evenodd" clip-rule="evenodd" d="M485.146 241.686C485.65 242.686 486.436 243.458 487.489 243.998C488.541 244.537 489.755 244.804 491.124 244.804C493.636 244.804 495.644 243.962 497.148 242.255C498.643 240.574 499.402 238.553 499.402 236.227C499.402 234.253 498.792 232.678 497.605 231.51C496.4 230.351 494.729 229.759 492.598 229.759C490.13 229.759 488.139 230.565 486.627 232.138C485.105 233.716 484.364 235.84 484.364 238.494C484.364 239.636 484.61 240.697 485.143 241.689L485.146 241.686ZM494.149 240.695C493.352 241.66 492.352 242.147 491.179 242.147C490.241 242.147 489.453 241.827 488.834 241.181C488.207 240.545 487.905 239.668 487.905 238.562C487.905 237.676 488.098 236.711 488.497 235.658C488.904 234.605 489.47 233.789 490.186 233.241C490.901 232.683 491.733 232.411 492.671 232.411C493.61 232.411 494.369 232.713 494.961 233.296C495.562 233.889 495.864 234.678 495.864 235.661C495.864 237.644 495.281 239.316 494.149 240.697V240.695Z" fill="black"/>
<path fill-rule="evenodd" clip-rule="evenodd" d="M502.294 238.21C501.907 239.768 501.728 240.803 501.728 241.334C501.728 242.396 502.08 243.238 502.816 243.866C503.534 244.505 504.542 244.804 505.815 244.804C507.823 244.804 509.67 244.086 511.387 242.616L510.918 244.804H514.422L517.702 229.759H514.114L512.531 237.13C512.346 238.096 512.132 238.785 511.939 239.193C511.637 239.732 511.32 240.175 510.983 240.504C510.654 240.838 510.265 241.14 509.851 241.39C509.426 241.636 509.01 241.833 508.614 241.956C508.207 242.097 507.808 242.152 507.392 242.152C506.82 242.152 506.339 242.003 505.985 241.692C505.612 241.39 505.428 241.02 505.428 240.577C505.428 240.328 505.551 239.665 505.817 238.594L507.949 229.762H504.384L502.294 238.213V238.21Z" fill="black"/>
<path fill-rule="evenodd" clip-rule="evenodd" d="M517.975 250.114H521.566L523.202 242.634C524.184 244.086 525.635 244.801 527.552 244.801C529.47 244.801 531.02 244.039 532.389 242.519C533.972 240.741 534.779 238.553 534.779 235.951C534.779 233.907 534.318 232.358 533.433 231.322C532.548 230.278 531.381 229.756 529.93 229.756C529.153 229.756 528.444 229.879 527.781 230.128C527.119 230.375 526.4 230.791 525.641 231.358L525.987 229.756H522.396L517.972 250.114H517.975ZM524.636 235.652C524.999 234.599 525.494 233.792 526.157 233.244C526.802 232.686 527.529 232.414 528.323 232.414C529.171 232.414 529.859 232.716 530.411 233.314C530.968 233.915 531.243 234.775 531.243 235.881C531.243 236.855 531.023 237.89 530.604 239.005C530.191 240.137 529.666 240.944 529.03 241.428C528.394 241.906 527.728 242.147 527.039 242.147C526.251 242.147 525.562 241.827 524.979 241.182C524.404 240.527 524.111 239.615 524.111 238.43C524.111 237.641 524.281 236.711 524.633 235.652H524.636Z" fill="black"/>
<path d="M159 210.264V259.93" stroke="black" stroke-opacity="0.3" stroke-width="2"/>
</svg>
